<?xml version="1.0" encoding="UTF-8"?>
<svg id="Layer_1" data-name="Layer 1" xmlns="http://www.w3.org/2000/svg" viewBox="0 0 600 819">
  <defs>
    <style>
      .cls-1 {
        fill: #46627c;
      }
    </style>
  </defs>
  <g>
    <path class="cls-1" d="m464.68,327.96c0-46.1-37.38-83.48-83.48-83.48s-83.48,37.38-83.48,83.48,37.37,83.48,83.48,83.48,83.48-37.38,83.48-83.48"/>
    <path class="cls-1" d="m21.74,272.26C21.74,119.25,137.25,0,300,0s278.26,120.75,278.26,272.26-114.75,272.25-279.01,272.25S21.74,426.76,21.74,272.26m278.26,211.8c113.36,0,209.82-81.54,209.82-211.8S413.36,60.45,300,60.45s-209.82,83.53-209.82,211.8,96.46,211.8,209.82,211.8"/>
  </g>
  <polygon class="cls-1" points=".85 624.83 .85 664.04 37.34 664.04 37.34 775.97 .85 775.97 .85 815.46 115.78 815.46 115.78 775.97 79.28 775.97 79.28 664.04 115.78 664.04 115.78 624.83 .85 624.83"/>
  <path class="cls-1" d="m152.54,624.83h75.16c38.67,0,65.09,28.05,65.09,63.18s-26.42,63.45-65.09,63.45h-33.22v64h-41.94v-190.63Zm72.71,87.42c14.16,0,25.05-10.08,25.05-24.24s-10.89-24.24-25.05-24.24h-30.77v48.47h30.77Z"/>
  <polygon class="cls-1" points="313.2 775.97 349.7 775.97 349.7 664.05 313.2 664.05 313.2 624.83 428.13 624.83 428.13 664.05 391.63 664.05 391.63 775.97 428.13 775.97 428.13 815.46 313.2 815.46 313.2 775.97"/>
  <path class="cls-1" d="m448.55,762.9l38.94-11.44c2.18,15.52,15.8,28.05,36.76,28.05s32.68-8.17,32.68-19.88c0-10.35-7.9-15.52-18.79-18.25l-29.68-7.35c-26.96-6.53-52.29-22.06-52.29-56.92,0-28.87,25.05-55.83,68.9-55.83,36.76,0,64.54,18.52,70.26,50.11l-39.49,10.62c-1.63-10.62-10.35-22.6-30.77-22.6-17.7,0-26.69,8.71-26.69,17.7,0,9.53,7.35,14.16,20.15,17.43l29.41,7.63c35.13,8.99,51.2,28.05,51.2,57.46,0,31.32-26.14,59.37-74.89,59.37-44.66,0-70.26-25.33-75.71-56.1"/>
</svg>